HIERARCHY
ROOT Pelvis
{
	OFFSET 0.000000 0.000000 0.000000
	CHANNELS 6 Xposition Yposition Zposition Xrotation Yrotation Zrotation
	JOINT LeftUpLeg_virtual
	{
		OFFSET 0.000000 0.000000 0.000000
		CHANNELS 3 Xrotation Yrotation Zrotation
		JOINT LeftUpLeg
		{
			OFFSET 18.735201 -5.666702 -4.541200
			CHANNELS 3 Xrotation Yrotation Zrotation
			JOINT LeftLeg
			{
				OFFSET -0.021200 -31.938179 0.493100
				CHANNELS 3 Xrotation Yrotation Zrotation
				JOINT LeftFoot
				{
					OFFSET 0.021200 -31.938179 -4.336299
					CHANNELS 3 Xrotation Yrotation Zrotation
					JOINT LeftToeBase
					{
						OFFSET 0.943001 -26.722000 15.023500
						CHANNELS 3 Xrotation Yrotation Zrotation
						End Site
						{
							OFFSET 0 0 0
						}
					}
				}
			}
		}
	}
	JOINT RightUpLeg_virtual
	{
		OFFSET 0.000000 0.000000 0.000000
		CHANNELS 3 Xrotation Yrotation Zrotation
		JOINT RightUpLeg
		{
			OFFSET -18.735201 -5.666702 -4.541200
			CHANNELS 3 Xrotation Yrotation Zrotation
			JOINT RightLeg
			{
				OFFSET 0.018946 -31.938133 0.493100
				CHANNELS 3 Xrotation Yrotation Zrotation
				JOINT RightFoot
				{
					OFFSET -0.018946 -31.938126 -4.336299
					CHANNELS 3 Xrotation Yrotation Zrotation
					JOINT RightToeBase
					{
						OFFSET -0.943001 -26.722004 15.023500
						CHANNELS 3 Xrotation Yrotation Zrotation
						End Site
						{
							OFFSET 0 0 0
						}
					}
				}
			}
		}
	}
	JOINT Hips_virtual
	{
		OFFSET 0.000000 0.000000 0.000000
		CHANNELS 3 Xrotation Yrotation Zrotation
		JOINT Hips
		{
			OFFSET -0.000000 -0.000000 -0.000000
			CHANNELS 3 Xrotation Yrotation Zrotation
			JOINT Spine
			{
				OFFSET 0.000000 10.199997 -0.299500
				CHANNELS 3 Xrotation Yrotation Zrotation
				JOINT Spine1
				{
					OFFSET 0.000000 11.900002 -1.516600
					CHANNELS 3 Xrotation Yrotation Zrotation
					JOINT Spine2
					{
						OFFSET 0.000000 13.600006 -2.842500
						CHANNELS 3 Xrotation Yrotation Zrotation
						JOINT Neck_virtual
						{
							OFFSET 0.000000 0.000000 0.000000
							CHANNELS 3 Xrotation Yrotation Zrotation
							JOINT Neck
							{
								OFFSET 0.000000 9.624100 -2.890100
								CHANNELS 3 Xrotation Yrotation Zrotation
								JOINT Head
								{
									OFFSET 0.000000 14.068802 -1.351900
									CHANNELS 3 Xrotation Yrotation Zrotation
									End Site
									{
										OFFSET 0 0 0
									}
								}
							}
						}
						JOINT LeftShoulder_virtual
						{
							OFFSET 0.000000 0.000000 0.000000
							CHANNELS 3 Xrotation Yrotation Zrotation
							JOINT LeftShoulder
							{
								OFFSET 15.263000 10.923401 -0.547700
								CHANNELS 3 Xrotation Yrotation Zrotation
								JOINT LeftArm
								{
									OFFSET 25.438599 -2.830597 -13.032500
									CHANNELS 3 Xrotation Yrotation Zrotation
									JOINT LeftForeArm
									{
										OFFSET 29.960503 0.000000 0.000000
										CHANNELS 3 Xrotation Yrotation Zrotation
										JOINT LeftHand
										{
											OFFSET 27.849251 0.000000 0.000000
											CHANNELS 3 Xrotation Yrotation Zrotation
											End Site
											{
												OFFSET 0 0 0
											}
										}
									}
								}
							}
						}
						JOINT RightShoulder_virtual
						{
							OFFSET 0.000000 0.000000 0.000000
							CHANNELS 3 Xrotation Yrotation Zrotation
							JOINT RightShoulder
							{
								OFFSET -15.263000 10.923401 -0.547700
								CHANNELS 3 Xrotation Yrotation Zrotation
								JOINT RightArm
								{
									OFFSET -25.438599 -2.830597 -13.032500
									CHANNELS 3 Xrotation Yrotation Zrotation
									JOINT RightForeArm
									{
										OFFSET -29.960503 0.000000 0.000000
										CHANNELS 3 Xrotation Yrotation Zrotation
										JOINT RightHand
										{
											OFFSET -27.849251 0.000000 0.000000
											CHANNELS 3 Xrotation Yrotation Zrotation
											End Site
											{
												OFFSET 0 0 0
											}
										}
									}
								}
							}
						}
					}
				}
			}
		}
	}
}
MOTION
Frames: 9
Frame Time: 0.03333333
-7.405873 89.127258 81.820496 0.000000 0.000000 0.000000 14.998771 -21.446714 -7.293250 -20.237343 9.917395 4.636579 37.580910 1.335726 1.322178 -12.817500 0.742854 -2.626371 0.000000 0.000000 0.000000 -2.547524 17.860456 2.056009 -35.890271 0.700129 -13.176713 60.622375 -2.862491 1.615611 7.314444 -5.539924 11.820103 0.000000 0.000000 0.000000 10.292097 6.803104 -0.695252 25.110644 7.628603 -7.704453 7.667275 0.888994 -2.674471 1.928358 0.974591 -1.000988 0.000000 0.000000 0.000000 1.022420 0.727473 -0.451968 -2.817748 0.403416 0.073486 0.000000 0.000000 0.000000 2.792798 2.084570 -1.974852 0.789844 2.431469 -14.422962 -3.296321 -7.245722 -52.853756 0.474264 -51.777154 -1.582767 0.000000 0.000000 0.000000 3.689979 1.901101 -0.119364 -0.319867 1.823859 12.369984 3.235953 -4.800924 40.644817 4.119104 52.714553 -3.086936 0.000000 0.000000 0.000000 
-7.331371 89.152435 84.360703 0.000000 0.000000 0.000000 16.149998 -21.611227 -7.110951 -18.380374 9.934733 4.318091 36.394380 1.249185 1.235192 -13.830235 0.747522 -2.827375 0.000000 0.000000 0.000000 -3.377021 18.929956 2.267333 -36.966411 1.064683 -13.063501 58.566960 -3.427487 1.543067 5.603788 -6.265376 11.217159 0.000000 0.000000 0.000000 10.306346 7.140090 -0.740585 25.115500 8.140559 -7.802002 7.726320 0.693374 -2.646668 1.952681 0.880770 -0.981496 0.000000 0.000000 0.000000 1.010627 0.717987 -0.487353 -2.810736 0.406911 0.048995 0.000000 0.000000 0.000000 2.868922 2.061779 -1.988202 0.858978 2.413406 -14.563227 -3.526325 -7.262783 -52.810647 0.392425 -51.743635 -1.624633 0.000000 0.000000 0.000000 3.676493 1.834604 -0.133327 -0.298627 1.635139 12.246486 3.104135 -4.801292 40.633997 4.063434 52.717849 -3.073574 0.000000 0.000000 0.000000 
-7.273881 89.040359 86.904121 0.000000 0.000000 0.000000 17.263056 -21.809320 -6.918508 -16.606857 9.937550 4.031260 35.281035 1.241102 1.123444 -14.787979 0.836655 -3.014035 0.000000 0.000000 0.000000 -4.169763 20.049245 2.518646 -37.978181 1.421021 -12.920226 56.577705 -3.897171 1.425524 3.915521 -6.852520 10.634068 0.000000 0.000000 0.000000 10.311968 7.435413 -0.783140 25.089158 8.552140 -7.882913 7.791442 0.508968 -2.644353 1.980715 0.792584 -0.977952 0.000000 0.000000 0.000000 0.997115 0.720151 -0.522188 -2.806076 0.417180 0.026728 0.000000 0.000000 0.000000 2.952634 2.047663 -2.002786 0.931460 2.425539 -14.694812 -3.699363 -7.260398 -52.757341 0.341664 -51.685104 -1.642136 0.000000 0.000000 0.000000 3.657666 1.773039 -0.155933 -0.286462 1.447891 12.100386 2.995320 -4.720264 40.667278 4.031699 52.868628 -3.062456 0.000000 0.000000 0.000000 
-7.231953 88.816711 89.449715 0.000000 0.000000 0.000000 18.332749 -22.038083 -6.713052 -14.926294 9.926446 3.780469 34.266595 1.309270 0.985553 -15.668194 1.006698 -3.191138 0.000000 0.000000 0.000000 -4.942120 21.195030 2.802471 -38.948331 1.768531 -12.758264 54.656232 -4.258983 1.266987 2.255310 -7.291562 10.083546 0.000000 0.000000 0.000000 10.311133 7.684894 -0.821489 25.033026 8.870870 -7.952680 7.861916 0.334975 -2.662739 2.012219 0.708972 -0.987645 0.000000 0.000000 0.000000 0.983392 0.731966 -0.555476 -2.803433 0.433342 0.007180 0.000000 0.000000 0.000000 3.041537 2.039790 -2.018223 1.004862 2.463878 -14.814820 -3.808569 -7.246527 -52.694182 0.325125 -51.606259 -1.634969 0.000000 0.000000 0.000000 3.633979 1.714951 -0.184966 -0.283383 1.261434 11.939147 2.917608 -4.553825 40.736905 4.028145 53.161466 -3.057055 0.000000 0.000000 0.000000 
-7.204885 88.509377 92.000214 0.000000 0.000000 0.000000 19.349742 -22.293232 -6.492742 -13.352816 9.901995 3.570359 33.383861 1.448211 0.821579 -16.442248 1.250182 -3.362769 0.000000 0.000000 0.000000 -5.709092 22.330318 3.108748 -39.897228 2.103891 -12.590259 52.797967 -4.509354 1.071469 0.626539 -7.583138 9.570608 0.000000 0.000000 0.000000 10.306108 7.885064 -0.854400 24.948243 9.106099 -8.016930 7.935832 0.169565 -2.694810 2.046128 0.628435 -1.006382 0.000000 0.000000 0.000000 0.969948 0.750596 -0.586075 -2.802719 0.454040 -0.009232 0.000000 0.000000 0.000000 3.132054 2.035285 -2.033604 1.075926 2.522938 -14.919418 -3.849017 -7.228699 -52.622223 0.344713 -51.511176 -1.604272 0.000000 0.000000 0.000000 3.605312 1.658603 -0.217591 -0.289808 1.075449 11.771237 2.877957 -4.301848 40.830980 4.057347 53.584521 -3.062813 0.000000 0.000000 0.000000 
-7.192528 88.145256 94.562134 0.000000 0.000000 0.000000 20.300553 -22.570130 -6.256421 -11.905005 9.864361 3.406020 32.672466 1.649686 0.633271 -17.075792 1.556328 -3.531518 0.000000 0.000000 0.000000 -6.480682 23.403621 3.425388 -40.839282 2.419886 -12.428853 51.001118 -4.654075 0.843270 -0.963018 -7.737901 9.093130 0.000000 0.000000 0.000000 10.298961 8.033609 -0.880842 24.835041 9.267130 -8.079780 8.010016 0.010477 -2.731817 2.080552 0.549403 -1.028785 0.000000 0.000000 0.000000 0.956005 0.772643 -0.612858 -2.804199 0.477487 -0.022212 0.000000 0.000000 0.000000 3.219633 2.031164 -2.047690 1.140763 2.596043 -15.004529 -3.817881 -7.212706 -52.542535 0.401028 -51.402668 -1.552190 0.000000 0.000000 0.000000 3.570887 1.602242 -0.250643 -0.306662 0.890183 11.605251 2.881407 -3.968341 40.936001 4.123300 54.119711 -3.085732 0.000000 0.000000 0.000000 
-7.194246 87.748032 97.144341 0.000000 0.000000 0.000000 21.168303 -22.864731 -6.004009 -10.604488 9.813125 3.292050 32.177305 1.902762 0.423638 -17.530326 1.911635 -3.698994 0.000000 0.000000 0.000000 -7.258795 24.350704 3.739202 -41.779922 2.704770 -12.285012 49.275006 -4.707366 0.587671 -2.495557 -7.774968 8.644152 0.000000 0.000000 0.000000 10.291110 8.130127 -0.900000 24.691660 9.362195 -8.142812 8.079888 -0.144235 -2.764023 2.112754 0.470684 -1.048762 0.000000 0.000000 0.000000 0.939472 0.794506 -0.634866 -2.808549 0.501605 -0.031622 0.000000 0.000000 0.000000 3.299043 2.024635 -2.059152 1.195111 2.675486 -15.066600 -3.714077 -7.201783 -52.455528 0.493652 -51.281955 -1.481163 0.000000 0.000000 0.000000 3.529446 1.544348 -0.280909 -0.335202 0.706525 11.449217 2.930524 -3.561227 41.040121 4.228334 54.743570 -3.130476 0.000000 0.000000 0.000000 
-7.207359 87.336731 99.755363 0.000000 0.000000 0.000000 21.934435 -23.174543 -5.737781 -9.473117 9.747407 3.230340 31.945310 2.193906 0.196031 -17.765739 2.300721 -3.867104 0.000000 0.000000 0.000000 -8.035765 25.101005 4.037319 -42.714060 2.943029 -12.166023 47.645344 -4.688824 0.311519 -3.940137 -7.718372 8.215739 0.000000 0.000000 0.000000 10.282909 8.177024 -0.911387 24.513542 9.398104 -8.205520 8.139283 -0.295514 -2.781554 2.139122 0.391862 -1.060070 0.000000 0.000000 0.000000 0.917080 0.812796 -0.651414 -2.816809 0.524227 -0.037502 0.000000 0.000000 0.000000 3.364681 2.013338 -2.066782 1.234593 2.752492 -15.103256 -3.537797 -7.196845 -52.360599 0.621642 -51.148626 -1.393340 0.000000 0.000000 0.000000 3.479554 1.483819 -0.305379 -0.376599 0.525971 11.310173 3.025130 -3.091689 41.136354 4.372125 55.428768 -3.198536 0.000000 0.000000 0.000000 
-7.225417 86.925018 102.400558 0.000000 0.000000 0.000000 22.581481 -23.499131 -5.463710 -8.529089 9.666199 3.217610 32.020866 2.507759 -0.046693 -17.743554 2.707670 -4.038915 0.000000 0.000000 0.000000 -8.795423 25.589309 4.308964 -43.626635 3.117989 -12.073711 46.154450 -4.618466 0.023240 -5.253428 -7.591778 7.803255 0.000000 0.000000 0.000000 10.273427 8.180410 -0.915073 24.293998 9.381016 -8.267595 8.180483 -0.442816 -2.775209 2.155246 0.313575 -1.056878 0.000000 0.000000 0.000000 0.884695 0.824748 -0.662083 -2.830232 0.543377 -0.040048 0.000000 0.000000 0.000000 3.410889 1.995496 -2.069663 1.255009 2.817138 -15.113783 -3.290538 -7.198011 -52.256924 0.783886 -51.001607 -1.290556 0.000000 0.000000 0.000000 3.419884 1.420098 -0.321440 -0.431467 0.350652 11.193944 3.161949 -2.573472 41.224693 4.550836 56.145579 -3.286794 0.000000 0.000000 0.000000 
